<?xml version="1.0" encoding="UTF-8"?>
<svg id="Ebene_1" data-name="Ebene 1" xmlns="http://www.w3.org/2000/svg" xmlns:xlink="http://www.w3.org/1999/xlink" viewBox="0 0 168.05 167.36">
  <defs>
    <style>
      .cls-1 {
        fill: url(#Gradient-Inverted);
      }
    </style>
    <linearGradient id="Gradient-Inverted" x1="0" y1="83.68" x2="168.05" y2="83.68" gradientUnits="userSpaceOnUse">
      <stop offset="0" stop-color="#87c285"/>
      <stop offset="1" stop-color="#59edb7"/>
    </linearGradient>
  </defs>
  <path class="cls-1" d="M151.76,16.91c-21.96-22.3-57.85-22.57-80.15-.61-.75.74-1.46,1.49-2.16,2.25-.23.25-.44.51-.66.76-.46.52-.92,1.05-1.36,1.59-.25.3-.48.61-.72.92-.39.5-.78,1-1.15,1.51-.24.33-.47.66-.7.99-.35.51-.7,1.02-1.04,1.54-.22.33-.43.67-.64,1-.33.53-.65,1.07-.96,1.62-.19.33-.38.65-.56.98-.32.59-.63,1.18-.93,1.78-.15.29-.3.58-.44.87-.35.73-.68,1.47-1,2.21-.07.17-.15.33-.22.5-.39.93-.75,1.87-1.09,2.81-7.06,19.83-2.75,42.82,13.01,58.82,15.76,16,38.68,20.66,58.61,13.9.95-.32,1.89-.67,2.83-1.04.17-.07.33-.14.5-.21.75-.31,1.49-.62,2.22-.96.3-.14.59-.28.88-.43.6-.29,1.2-.59,1.79-.9.33-.17.66-.36.98-.54.55-.31,1.1-.62,1.64-.94.34-.2.67-.41,1.01-.62.52-.33,1.05-.67,1.56-1.02.33-.22.66-.45.99-.68.52-.37,1.03-.75,1.54-1.13.31-.24.62-.47.93-.71.54-.43,1.08-.88,1.61-1.33.26-.22.52-.43.77-.65.78-.69,1.54-1.39,2.29-2.13,22.3-21.96,22.57-57.85.61-80.15ZM141.61,87.37c-3.56,3.51-7.59,6.27-11.87,8.28-1.45-14.2-7.56-28.02-18.36-38.97-10.79-10.96-24.52-17.28-38.69-18.95,2.08-4.26,4.9-8.24,8.46-11.75,16.92-16.67,44.25-16.46,60.92.46,16.67,16.92,16.46,44.26-.46,60.92ZM123.68,130.45c-3.16,6.6-7.49,12.77-13,18.2-25.59,25.21-66.77,24.89-91.98-.7-25.21-25.59-24.89-66.77.7-91.98,5.51-5.43,11.75-9.66,18.4-12.73-.77,4.22-1.19,8.51-1.22,12.86-.07,9.71,1.7,19.19,5.26,28.18,3.7,9.32,9.16,17.69,16.24,24.88,7.08,7.19,15.37,12.78,24.63,16.62,8.94,3.7,18.39,5.62,28.1,5.69,4.35.03,8.64-.32,12.87-1.03Z"/>
</svg>